<?xml version="1.0" standalone="no"?>
<!DOCTYPE svg PUBLIC "-//W3C//DTD SVG 20010904//EN"
 "http://www.w3.org/TR/2001/REC-SVG-20010904/DTD/svg10.dtd">
<svg version="1.0" xmlns="http://www.w3.org/2000/svg"
 width="480.000000pt" height="480.000000pt" viewBox="0 0 480.000000 480.000000"
 preserveAspectRatio="xMidYMid meet">
<metadata>
Created by potrace 1.11, written by Peter Selinger 2001-2013
</metadata>
<g transform="translate(0.000000,480.000000) scale(0.100000,-0.100000)"
fill="#000000" stroke="none">
<path d="M3027 4424 c-3 -4 -19 -8 -34 -10 -15 -1 -29 -8 -31 -13 -2 -6 -17
-11 -34 -11 -16 0 -36 -7 -45 -15 -8 -8 -19 -13 -24 -10 -5 4 -9 2 -9 -4 0 -6
-6 -8 -12 -6 -7 3 -26 -7 -43 -22 -16 -16 -31 -27 -32 -25 -10 8 -43 0 -43
-11 0 -8 -11 -20 -25 -27 -13 -7 -27 -22 -31 -32 -3 -10 -9 -16 -14 -13 -12 7
-57 -39 -52 -53 2 -7 -2 -12 -10 -12 -16 0 -78 -63 -78 -79 0 -6 -4 -11 -8
-11 -4 0 -19 -18 -32 -40 -14 -22 -28 -40 -32 -40 -5 0 -8 -5 -8 -11 0 -6 -7
-17 -15 -25 -8 -9 -15 -24 -15 -35 0 -10 -4 -19 -10 -19 -8 0 -52 -73 -55 -90
-2 -13 -24 -44 -25 -35 -1 6 -8 -15 -16 -45 -8 -30 -18 -57 -23 -60 -13 -8
-33 -51 -27 -57 3 -3 -3 -18 -14 -33 -11 -16 -20 -38 -20 -49 0 -12 -4 -21
-10 -21 -5 0 -10 -8 -10 -17 0 -16 -40 -146 -61 -198 -4 -11 -10 -33 -12 -50
-3 -16 -12 -64 -20 -105 -28 -135 -46 -244 -52 -310 -3 -36 -10 -92 -15 -125
-5 -33 -12 -89 -15 -125 -4 -36 -9 -72 -11 -80 -10 -28 -4 -488 7 -565 6 -42
8 -79 5 -82 -3 -3 -1 -14 4 -23 10 -19 15 -61 25 -200 3 -47 13 -113 21 -147
9 -34 13 -67 10 -72 -4 -5 -3 -12 2 -15 4 -2 9 -24 11 -47 1 -23 4 -45 6 -49
3 -5 32 -169 40 -230 5 -38 18 -96 24 -105 3 -5 7 -21 8 -35 1 -14 14 -81 28
-149 13 -68 22 -128 18 -134 -3 -5 -1 -7 4 -4 6 4 13 -9 17 -31 9 -53 13 -76
35 -176 11 -50 18 -93 16 -97 -7 -11 26 -16 68 -11 28 3 37 9 37 23 0 15 94
123 149 172 5 5 25 23 45 41 19 19 37 31 40 29 2 -3 7 5 11 16 3 12 11 19 16
16 5 -4 9 1 9 9 0 9 9 16 20 16 11 0 20 4 20 10 0 10 27 44 64 83 15 16 19 33
17 81 -1 34 -7 81 -12 106 -6 25 -12 68 -15 95 -4 44 -14 110 -28 181 -2 11
-7 54 -11 95 -3 41 -8 85 -9 99 -2 14 -7 63 -10 110 -4 47 -9 110 -11 140 -27
315 -32 718 -14 945 6 72 11 139 10 149 0 11 6 51 14 90 20 101 23 115 34 150
5 17 17 64 26 105 9 41 25 88 34 105 9 17 25 59 35 93 11 34 22 60 26 58 7 -4
21 31 24 57 1 3 11 17 22 31 12 14 28 41 35 60 7 20 15 36 18 35 21 -2 31 4
31 20 0 9 19 37 42 62 24 25 41 49 40 53 -1 5 2 6 7 2 11 -6 51 28 51 43 0 9
53 37 57 30 2 -1 10 7 18 19 9 13 22 20 30 17 8 -4 15 -1 15 4 0 6 10 14 23
18 12 3 30 14 41 23 10 9 21 15 25 15 3 -1 16 2 29 7 13 5 27 9 31 9 11 0 21
-36 21 -72 0 -15 4 -29 9 -32 12 -8 16 -96 16 -321 0 -185 -5 -261 -25 -415
-5 -41 -11 -93 -13 -115 -2 -22 -9 -62 -15 -90 -6 -27 -17 -84 -23 -125 -7
-41 -16 -83 -22 -94 -5 -10 -11 -37 -14 -59 -2 -23 -11 -56 -19 -75 -8 -19
-14 -45 -14 -58 0 -13 -5 -24 -11 -24 -5 0 -7 -4 -4 -10 8 -14 -76 -257 -97
-279 -9 -10 -22 -38 -28 -62 -17 -67 -33 -109 -41 -109 -4 0 -11 -10 -15 -22
-10 -32 -53 -130 -65 -148 -5 -8 -15 -27 -22 -42 -6 -16 -14 -28 -18 -28 -4 0
-10 -16 -13 -35 -4 -19 -12 -38 -19 -42 -17 -11 -43 -74 -41 -98 2 -11 12
-110 24 -220 11 -110 23 -211 27 -225 4 -14 7 -30 8 -37 0 -7 5 -17 11 -23 9
-9 18 -3 35 22 13 18 28 38 34 44 5 6 21 25 34 42 13 18 30 32 36 32 7 0 16
11 19 25 4 14 13 25 21 25 8 0 21 16 29 35 8 19 22 38 31 41 8 3 15 11 15 16
0 6 14 27 30 47 48 57 50 60 50 71 0 6 4 9 9 6 5 -4 19 14 31 39 12 25 26 43
31 39 5 -3 9 2 9 10 0 8 6 21 13 28 7 7 16 22 20 32 4 10 10 16 14 12 4 -3 12
7 19 24 7 16 20 30 27 30 9 0 17 14 21 34 4 19 12 36 19 39 6 3 21 22 32 43
11 22 22 41 25 44 7 7 29 43 37 60 4 8 14 22 24 31 10 8 21 27 24 42 4 15 11
24 16 21 5 -3 9 2 9 11 0 9 7 23 15 31 8 9 15 24 15 35 0 10 4 19 9 19 7 0 20
26 25 52 0 4 9 16 18 28 10 11 16 20 13 20 -2 0 7 21 20 46 14 26 25 53 25 60
0 8 4 14 9 14 7 0 17 20 25 50 5 22 62 156 67 160 4 3 10 21 13 40 4 19 11 44
16 55 12 26 67 250 73 296 2 20 7 41 11 47 22 36 28 481 8 592 -25 137 -33
170 -43 190 -4 8 -13 36 -21 63 -7 26 -16 47 -20 47 -4 0 -8 8 -9 18 -1 30
-95 202 -120 220 -11 7 -19 22 -19 33 0 10 -7 19 -15 19 -8 0 -15 7 -15 15 0
8 -4 15 -10 15 -5 0 -12 11 -16 25 -3 14 -13 25 -23 25 -9 0 -31 18 -50 40
-18 22 -37 37 -42 34 -5 -3 -12 2 -15 10 -3 9 -11 16 -18 16 -6 0 -19 8 -28
18 -26 27 -46 42 -57 42 -5 0 -24 8 -43 17 -18 9 -46 23 -61 31 -16 8 -39 12
-52 10 -14 -3 -26 0 -29 8 -3 8 -14 14 -25 14 -11 0 -26 6 -33 13 -7 7 -26 12
-43 12 -16 0 -38 3 -47 8 -11 5 -18 4 -18 -3 0 -5 -5 -10 -11 -10 -5 0 -7 6
-3 13 6 9 4 9 -8 -1 -13 -10 -17 -10 -21 0 -4 10 -7 10 -15 -1 -7 -9 -11 -10
-17 -2 -5 9 -11 9 -22 0 -12 -10 -17 -10 -25 2 -7 11 -11 11 -15 2 -2 -7 -9
-13 -14 -13 -6 0 -7 5 -4 10 7 11 2 13 -8 4z"/>
<path d="M1479 3686 c-3 -3 -32 -9 -65 -12 -32 -4 -62 -11 -65 -16 -3 -5 -9
-9 -13 -9 -3 1 -7 1 -8 0 -2 0 -12 -2 -23 -4 -11 -2 -21 -8 -23 -14 -2 -5 -14
-7 -28 -5 -16 3 -27 -1 -30 -11 -4 -8 -12 -15 -19 -15 -8 0 -21 -7 -29 -16 -9
-8 -25 -16 -36 -17 -11 -1 -22 -7 -24 -14 -3 -7 -12 -13 -21 -13 -8 0 -15 -4
-15 -9 0 -5 -9 -13 -21 -16 -27 -9 -164 -146 -184 -185 -9 -17 -20 -30 -26
-30 -6 0 -8 -4 -5 -9 4 -5 2 -11 -2 -13 -5 -1 -23 -29 -39 -60 -17 -32 -32
-56 -34 -53 -3 2 -5 -4 -6 -14 -1 -11 -11 -39 -22 -64 -12 -25 -21 -54 -21
-65 0 -10 -3 -22 -7 -26 -4 -3 -8 -14 -9 -24 -7 -51 -14 -83 -18 -91 -25 -40
-22 -421 4 -521 5 -19 19 -75 30 -125 12 -49 24 -97 27 -105 4 -8 7 -18 7 -22
1 -3 4 -10 8 -14 5 -4 8 -17 8 -28 0 -12 7 -29 15 -39 7 -11 17 -36 20 -58 4
-21 10 -39 15 -39 6 0 19 -26 24 -52 0 -3 4 -10 9 -14 4 -4 7 -16 7 -26 0 -10
4 -18 8 -18 5 0 22 -26 39 -57 17 -32 41 -78 54 -103 13 -25 30 -49 37 -53 6
-4 12 -15 12 -22 0 -8 3 -15 8 -15 4 0 16 -16 26 -35 11 -19 22 -35 26 -35 5
0 11 -11 14 -25 4 -14 13 -25 21 -25 7 0 17 -10 20 -21 4 -12 20 -35 36 -51
16 -17 31 -39 34 -49 4 -11 11 -17 16 -14 5 4 9 -1 9 -9 0 -9 5 -16 10 -16 6
0 10 -5 10 -11 0 -5 11 -22 25 -37 14 -15 52 -56 85 -91 33 -36 60 -68 60 -73
0 -4 7 -8 15 -8 8 0 15 -4 15 -10 0 -5 13 -23 30 -40 17 -17 30 -36 30 -42 0
-6 3 -8 7 -5 6 7 73 -62 73 -75 0 -5 6 -8 13 -8 6 0 43 -32 80 -70 37 -39 71
-70 75 -70 4 0 20 -14 36 -30 16 -17 33 -30 38 -30 5 0 6 -4 3 -10 -3 -5 1
-10 9 -10 8 0 23 -11 34 -25 11 -14 25 -25 31 -25 5 0 15 -9 21 -20 6 -12 22
-25 36 -30 13 -5 24 -17 24 -25 0 -9 4 -14 8 -11 5 3 20 -6 35 -20 40 -36 61
-29 38 14 -9 16 -42 158 -57 242 -19 109 -33 188 -38 213 -15 68 -18 84 -22
111 -2 16 -8 45 -13 65 -6 20 -13 65 -16 101 -4 35 -8 67 -10 70 -4 7 -15 81
-21 135 -2 22 -8 69 -14 105 -16 91 -18 108 -22 178 -1 34 -5 62 -9 62 -5 0
-40 31 -135 121 -22 22 -46 39 -54 39 -7 0 -10 3 -7 7 4 3 -6 17 -21 30 -34
29 -35 31 -74 73 -45 49 -108 127 -108 134 0 3 -10 16 -22 29 -39 42 -88 115
-88 132 0 8 -4 15 -9 15 -5 0 -11 8 -14 18 -3 9 -12 28 -21 42 -23 39 -56 118
-56 134 0 8 -5 18 -11 21 -5 4 -8 12 -6 18 2 7 0 20 -5 30 -11 22 -17 47 -24
107 -3 25 -9 61 -13 80 -4 20 -7 79 -5 133 2 76 6 103 19 117 13 14 22 17 34
10 10 -5 29 -7 44 -6 15 2 28 -3 31 -11 3 -8 10 -12 14 -9 5 3 21 -2 36 -10
16 -7 35 -14 42 -14 22 0 115 -51 121 -67 3 -7 12 -13 19 -13 8 0 17 -7 20
-15 4 -8 12 -15 20 -15 7 0 23 -13 36 -30 12 -16 30 -32 40 -36 10 -3 16 -9
13 -14 -3 -5 4 -17 15 -28 29 -27 100 -124 100 -137 0 -6 8 -17 18 -26 9 -8
24 -25 32 -38 15 -23 15 -23 17 11 3 55 14 139 29 228 7 47 16 105 19 130 5
48 10 80 19 120 3 14 11 50 16 82 6 31 17 78 25 105 8 26 16 59 19 73 2 14 8
40 12 58 4 21 3 32 -5 32 -6 0 -11 9 -11 20 0 11 -4 20 -9 20 -9 0 -72 46
-113 84 -15 13 -29 22 -31 19 -3 -2 -20 4 -39 13 -18 10 -36 19 -40 20 -5 1
-10 3 -13 4 -3 1 -9 4 -15 5 -5 1 -11 3 -12 5 -6 4 -45 11 -86 14 -23 2 -45 6
-48 9 -3 3 -18 1 -34 -3 -18 -5 -30 -4 -32 1 -2 6 -6 8 -9 5z"/>
</g>
</svg>
